<svg xmlns="http://www.w3.org/2000/svg" viewBox="0 0 512 512">
  <!-- Background -->
  <rect width="512" height="512" rx="80" fill="#1a6b2e"/>
  <!-- Football pitch lines -->
  <rect x="80" y="100" width="352" height="312" rx="8" fill="none" stroke="rgba(255,255,255,0.3)" stroke-width="6"/>
  <line x1="256" y1="100" x2="256" y2="412" stroke="rgba(255,255,255,0.3)" stroke-width="6"/>
  <circle cx="256" cy="256" r="60" fill="none" stroke="rgba(255,255,255,0.3)" stroke-width="6"/>
  <!-- Football -->
  <circle cx="256" cy="256" r="72" fill="white"/>
  <circle cx="256" cy="256" r="72" fill="none" stroke="#1a6b2e" stroke-width="4"/>
  <!-- Pentagon patches -->
  <polygon points="256,200 278,218 270,244 242,244 234,218" fill="#1a6b2e"/>
  <polygon points="300,228 322,246 314,272 286,272 294,246" fill="#1a6b2e" transform="rotate(72,256,256)"/>
  <polygon points="300,228 322,246 314,272 286,272 294,246" fill="#1a6b2e" transform="rotate(144,256,256)"/>
  <polygon points="300,228 322,246 314,272 286,272 294,246" fill="#1a6b2e" transform="rotate(216,256,256)"/>
  <polygon points="300,228 322,246 314,272 286,272 294,246" fill="#1a6b2e" transform="rotate(288,256,256)"/>
</svg>
